<?xml version="1.0" encoding="UTF-8" standalone="no"?><!DOCTYPE svg PUBLIC "-//W3C//DTD SVG 1.1//EN" "http://www.w3.org/Graphics/SVG/1.1/DTD/svg11.dtd"><svg width="100%" height="100%" viewBox="0 0 512 512" version="1.1" xmlns="http://www.w3.org/2000/svg" xmlns:xlink="http://www.w3.org/1999/xlink" xml:space="preserve" xmlns:serif="http://www.serif.com/" style="fill-rule:evenodd;clip-rule:evenodd;stroke-linejoin:round;stroke-miterlimit:2;"><path d="M362.177,120.958l0,-26.729l11.111,0c7.854,0 11.002,2.646 16.283,8.1c4.031,4.142 17.15,18.629 17.15,18.629l-44.544,0Zm-8.912,-26.729l-19.985,0c-6.131,0 -9.361,1.98 -12.268,5.175c-2.809,3.105 -7.977,8.448 -13.416,14.889c15.313,5.737 36.135,6.665 45.668,6.665l-0,-26.729l0.001,0Zm124.73,45.983c-0,-25.153 -18.078,-30.385 -24.895,-32.353c-10.17,-2.947 -14.736,-4.229 -27.004,-7.074c-4.898,-4.856 -18.279,-18.136 -21.281,-21.168l-0.793,-0.811c-5.932,-6.051 -12.666,-11.305 -28.256,-11.305l-68.074,0c-4.871,0 -7.047,4.062 -2.264,8.409c-4.748,4.119 -17.311,15.195 -20.844,18.778c-12.328,12.494 -20.412,22.099 -20.412,41.015c-0,21.923 12.131,37.933 28.33,38.585c3.646,10.424 13.467,17.941 25.127,17.941c11.623,0 21.402,-7.466 25.092,-17.819l56.725,0c3.674,10.354 13.467,17.819 25.086,17.819c11.648,0 21.459,-7.51 25.117,-17.906c17.235,-0.503 28.346,-13.414 28.346,-34.111Zm-160.365,35.983c-5.898,0 -10.693,-4.793 -10.693,-10.691c-0,-5.899 4.795,-10.692 10.693,-10.692c5.898,0 10.691,4.793 10.691,10.692c-0,5.898 -4.793,10.691 -10.691,10.691Zm106.906,0c-5.896,0 -10.688,-4.793 -10.688,-10.691c-0,-5.899 4.791,-10.692 10.688,-10.692c5.9,0 10.695,4.793 10.695,10.692c-0,5.898 -4.794,10.691 -10.695,10.691Zm25.233,-19.157c-3.549,-10.589 -13.441,-18.263 -25.232,-18.263c-11.822,0 -21.729,7.734 -25.262,18.375l-56.381,0c-3.533,-10.641 -13.439,-18.375 -25.264,-18.375c-11.746,0 -21.609,7.638 -25.207,18.177c-5.219,-1.019 -10.43,-9.241 -10.43,-21.247c-0,-11.899 4.195,-17.27 15.268,-28.501c6.467,-6.55 11.668,-10.773 20.16,-18.05c3.027,-2.596 6.898,-3.852 10.895,-3.832l46.084,0c10.863,0 14.049,3.427 18.854,7.947c3.73,3.501 23.889,23.743 23.889,23.743c-0,-0 20.518,4.933 31.012,7.973c7.48,2.164 12.023,4.27 12.023,15.235c-0.001,10.647 -3.534,16.268 -10.409,16.818Z" style="fill:#fff;fill-rule:nonzero;"/><path d="M380.075,195.221l-27.203,0c21.109,13.679 37.771,33.898 47.488,57.604l-45.74,0c-3.043,-18.249 -8.406,-34.505 -14.936,-48.193c-4.928,2.484 -10.289,4.234 -15.949,5.085c6.08,12.338 10.715,26.812 13.896,43.108l-46.613,0l0,-48.632c-6.4,-3.376 -12.029,-8.016 -16.553,-13.593l0,62.225l-46.611,0c6.748,-33.031 19.582,-59.38 35.426,-71.297c-5.432,-5.166 -9.756,-12.411 -12.389,-20.915c-48.086,10.976 -87.109,46.177 -103.625,91.775l-79.72,0c-9.146,0 -16.986,-7.405 -16.986,-16.987c-0,-9.149 7.404,-16.555 16.986,-16.555l33.98,0c18.295,0 33.543,-15.247 33.543,-33.543c0,-18.296 -14.813,-33.543 -33.543,-33.543l-6.1,0c-9.148,0 -16.988,-7.405 -16.988,-16.989c0,-9.582 7.406,-16.988 16.988,-16.988l151.822,-0.014c1.33,-8.509 7.844,-16.541 7.844,-16.541l-159.665,0c-18.297,0 -33.541,14.813 -33.541,33.543c-0,18.731 14.809,33.545 33.541,33.545l6.1,0c9.147,0 16.988,7.403 16.988,16.987c-0,9.147 -7.406,16.554 -16.988,16.554l-33.98,0c-18.295,0 -33.541,15.247 -33.541,33.544c-0,18.295 14.811,33.542 33.541,33.542l74.928,-0c-2.18,10.453 -3.485,20.91 -3.485,31.799c-0,79.285 64.907,143.756 144.19,143.756c79.283,-0 143.754,-64.471 143.754,-143.756c-0.001,-41.449 -18.138,-79.204 -46.859,-105.521Zm-140.023,-13.838c-13.504,16.99 -23.523,41.82 -28.751,71.006l-46.175,-0c13.504,-32.671 40.947,-58.808 74.926,-71.006Zm-84.51,119.795c0,-10.889 1.307,-21.781 3.92,-31.799l48.789,-0c-1.307,10.455 -1.74,20.91 -1.74,31.799c0,10.891 0.871,21.781 1.74,31.801l-48.352,-0c-2.615,-10.456 -4.357,-20.911 -4.357,-31.801Zm9.584,48.355l45.738,-0c5.229,29.186 15.684,54.451 28.752,71.004c-33.543,-11.76 -60.986,-37.896 -74.49,-71.004Zm109.34,77.104c-20.91,-6.535 -38.334,-37.027 -46.611,-77.104l46.611,-0l0,77.104Zm0,-93.658l-49.225,-0c-1.307,-10.455 -1.742,-20.91 -1.742,-31.801c0,-10.889 0.869,-21.344 2.178,-31.799l48.789,-0l0,63.6Zm16.553,-63.6l48.789,-0c1.307,10.455 2.18,20.91 2.18,31.799c0,10.891 -0.873,21.346 -2.18,31.801l-48.789,-0l0,-63.6Zm0,157.258l0,-77.104l46.613,-0c-8.279,40.512 -25.703,71.004 -46.613,77.104Zm34.414,-6.1c13.506,-16.986 23.523,-41.818 28.75,-71.004l46.178,-0c-13.505,33.108 -40.95,59.244 -74.928,71.004Zm31.8,-87.558c1.309,-10.02 1.744,-20.91 1.744,-31.801c0,-10.889 -0.873,-21.344 -1.744,-31.799l48.789,-0c2.18,10.018 3.922,20.91 3.922,31.799c0,10.891 -1.742,21.781 -4.359,31.801l-48.352,-0Z" style="fill:#fff;fill-rule:nonzero;"/></svg>